<?xml version="1.0" encoding="utf-8"?>
<!-- Generator: Adobe Illustrator 16.0.0, SVG Export Plug-In . SVG Version: 6.00 Build 0)  -->
<!DOCTYPE svg PUBLIC "-//W3C//DTD SVG 1.1//EN" "http://www.w3.org/Graphics/SVG/1.1/DTD/svg11.dtd">
<svg version="1.1" id="Layer_1" xmlns="http://www.w3.org/2000/svg" xmlns:xlink="http://www.w3.org/1999/xlink" x="0px" y="0px"
	 width="103px" height="100px" viewBox="0 0 103 100" enable-background="new 0 0 103 100" xml:space="preserve">
<g>
	<path fill="#F7F7F7" d="M91.02,55.398h-4.969V20.615c1.37,0,2.484-1.114,2.484-2.485v-2.484c0-1.37-1.114-2.484-2.484-2.484H23.937
		c-1.37,0-2.484,1.114-2.484,2.484v2.484c0,1.371,1.114,2.485,2.484,2.485V45.46h-4.969c-1.37,0-2.484,1.115-2.484,2.485v2.484
		c0,1.37,1.114,2.484,2.484,2.484v37.269H91.02v-27.33c1.371,0,2.484-1.114,2.484-2.484v-2.485
		C93.504,56.513,92.391,55.398,91.02,55.398z M76.112,55.398v-2.484c1.37,0,2.485-1.114,2.485-2.484v-2.484
		c0-1.37-1.115-2.485-2.485-2.485h-8.182l6.939-6.938l8.696,8.695v8.182H76.112z M33.875,68.204l-11.213-15.29h22.427L33.875,68.204
		z M46.298,55.468v29.677L35.416,70.306L46.298,55.468z M32.334,70.306L21.452,85.145V55.468L32.334,70.306z M33.875,72.408
		l11.212,15.29H22.662L33.875,72.408z M56.236,87.698h-6.244l6.244-8.515V87.698z M56.236,62.853v12.129l-7.454,10.163v-32.23
		h24.846v2.484H56.236c-1.371,0-2.484,1.114-2.484,2.484v2.485C53.752,61.738,54.865,62.853,56.236,62.853z M40.601,45.46
		l-3.727-3.727l6.939-6.939V45.46H40.601z M37.087,45.46h-3.94l1.97-1.97L37.087,45.46z M83.566,43.704l-6.939-6.939l6.939-6.939
		V43.704z M74.87,35.008l-6.939-6.939H81.81L74.87,35.008z M66.174,29.825l6.939,6.939l-6.939,6.939V29.825z M63.689,36.25
		l-6.939-6.939l6.939-6.939V36.25z M61.934,38.007H48.054l6.94-6.939L61.934,38.007z M54.994,27.554l-6.94-6.938h13.879
		L54.994,27.554z M53.236,29.311l-6.938,6.939V22.371L53.236,29.311z M35.117,39.977l-6.939-6.938h13.879L35.117,39.977z
		 M46.298,40.491h17.392v4.969H46.298V40.491z M83.566,25.584H66.174v-4.969h17.393V25.584z M23.937,15.646h62.114l0.001,2.484
		H23.937V15.646z M43.813,20.615v9.938H26.421v-9.938H43.813z M26.421,34.794l6.939,6.939l-3.727,3.727h-3.212V34.794z
		 M18.967,47.945h57.145l0.001,2.484H18.967V47.945z M78.598,87.698h-9.939V75.275h9.939V87.698z M88.535,87.698h-7.453V72.791
		H66.174v14.907h-7.453V62.853h29.814V87.698z M56.236,60.368v-2.485H91.02l0.002,2.485H56.236z"/>
</g>
</svg>
