<?xml version="1.0" encoding="utf-8"?>
<!-- Generator: Adobe Illustrator 16.0.0, SVG Export Plug-In . SVG Version: 6.00 Build 0)  -->
<!DOCTYPE svg PUBLIC "-//W3C//DTD SVG 1.1//EN" "http://www.w3.org/Graphics/SVG/1.1/DTD/svg11.dtd">
<svg version="1.1" id="Layer_1" xmlns="http://www.w3.org/2000/svg" xmlns:xlink="http://www.w3.org/1999/xlink" x="0px" y="0px"
	 width="98px" height="100px" viewBox="0 0 98 100" enable-background="new 0 0 98 100" xml:space="preserve">
<g>
	<path fill="#FDFBFB" d="M45.125,80.002h-1.338v-2.676c0-0.188-0.039-0.372-0.115-0.544L38.32,64.739
		c-0.216-0.484-0.693-0.795-1.223-0.795H13.011c-0.74,0-1.338,0.598-1.338,1.339v14.719h-1.338c-0.74,0-1.338,0.598-1.338,1.338
		v5.353c0,0.74,0.598,1.338,1.338,1.338h4.205c0.598,2.304,2.675,4.015,5.162,4.015s4.564-1.711,5.163-4.015h5.732
		c0.598,2.304,2.675,4.015,5.162,4.015s4.564-1.711,5.162-4.015h4.205c0.74,0,1.337-0.598,1.337-1.338V81.34
		C46.463,80.6,45.865,80.002,45.125,80.002z M19.701,89.369c-1.476,0-2.676-1.201-2.676-2.677c0-1.477,1.2-2.677,2.676-2.677
		s2.676,1.2,2.676,2.677C22.377,88.168,21.177,89.369,19.701,89.369z M35.758,89.369c-1.476,0-2.676-1.201-2.676-2.677
		c0-1.477,1.2-2.677,2.676-2.677s2.676,1.2,2.676,2.677C38.435,88.168,37.234,89.369,35.758,89.369z M43.787,85.354H40.92
		c-0.598-2.303-2.675-4.014-5.162-4.014s-4.564,1.711-5.162,4.014h-5.732c-0.598-2.303-2.675-4.014-5.163-4.014
		s-4.564,1.711-5.162,4.014h-2.866v-2.676h1.338c0.74,0,1.338-0.598,1.338-1.338V66.621h21.879l4.883,10.988v3.73
		c0,0.74,0.598,1.338,1.338,1.338h1.338V85.354z"/>
	<path fill="#FDFBFB" d="M35.664,70.139c-0.205-0.508-0.696-0.842-1.243-0.842h-5.353c-0.74,0-1.338,0.598-1.338,1.339v6.69
		c0,0.739,0.598,1.337,1.338,1.337h8.029c0.444,0,0.859-0.221,1.108-0.587s0.299-0.835,0.135-1.247L35.664,70.139z M30.406,75.987
		v-4.015h3.108l1.605,4.015H30.406z"/>
	<path fill="#FDFBFB" d="M23.716,69.297h-5.353c-0.741,0-1.338,0.598-1.338,1.339v6.69c0,0.739,0.598,1.337,1.338,1.337h5.353
		c0.74,0,1.338-0.598,1.338-1.337v-6.69C25.054,69.895,24.456,69.297,23.716,69.297z M22.377,75.987h-2.676v-4.015h2.676V75.987z"/>
	<path fill="#FDFBFB" d="M31.744,59.931h40.143c3.689,0,6.69,3.001,6.69,6.69c0,3.688-3.001,6.689-6.69,6.689H49.14v2.677h22.747
		c5.164,0,9.367-4.203,9.367-9.366c0-5.164-4.203-9.367-9.367-9.367H31.744c-11.067,0-20.071-9.004-20.071-20.071
		c0-11.067,9.004-20.072,20.071-20.072h38.805v-2.676H31.744c-12.543,0-22.748,10.205-22.748,22.748
		C8.997,49.726,19.201,59.931,31.744,59.931z"/>
	<path fill="#FDFBFB" d="M71.887,46.549H51.815v-2.913c2.304-0.748,4.015-3.345,4.015-6.454c0-3.689-2.4-6.691-5.353-6.691
		s-5.352,3.002-5.352,6.691c0,3.109,1.711,5.705,4.014,6.454v2.913H38.435v-2.913c2.303-0.748,4.015-3.345,4.015-6.454
		c0-3.689-2.401-6.691-5.353-6.691c-2.952,0-5.353,3.002-5.353,6.691c0,3.109,1.711,5.705,4.014,6.454v2.913h-4.014
		c-5.164,0-9.367-4.203-9.367-9.367s4.203-9.366,9.367-9.366h38.805V25.14H31.744c-6.641,0-12.043,5.402-12.043,12.043
		s5.402,12.043,12.043,12.043h40.143c9.592,0,17.396,7.804,17.396,17.396c0,9.591-7.804,17.395-17.396,17.395H49.14v2.677h22.747
		c11.067,0,20.072-9.004,20.072-20.071S82.954,46.549,71.887,46.549z M47.801,37.183c0-2.176,1.226-4.015,2.676-4.015
		c1.45,0,2.676,1.839,2.676,4.015s-1.226,4.014-2.676,4.014C49.027,41.197,47.801,39.358,47.801,37.183z M34.42,37.183
		c0-2.176,1.226-4.015,2.676-4.015c1.45,0,2.676,1.839,2.676,4.015s-1.226,4.014-2.676,4.014
		C35.646,41.197,34.42,39.358,34.42,37.183z"/>
	<path fill="#FDFBFB" d="M66.534,19.787h4.015v2.676h-4.015V19.787z"/>
	<path fill="#FDFBFB" d="M55.83,19.787h5.352v2.676H55.83V19.787z"/>
	<path fill="#FDFBFB" d="M45.125,19.787h5.352v2.676h-5.352V19.787z"/>
	<path fill="#FDFBFB" d="M34.42,19.787h5.353v2.676H34.42V19.787z"/>
	<path fill="#FDFBFB" d="M24.386,24.432c1.521-0.879,3.169-1.474,4.904-1.764l-0.444-2.64c-2.051,0.345-4.002,1.046-5.8,2.089
		L24.386,24.432z"/>
	<path fill="#FDFBFB" d="M17.614,27.034c-1.263,1.756-2.179,3.708-2.717,5.8l2.593,0.669c0.456-1.771,1.228-3.422,2.297-4.905
		L17.614,27.034z"/>
	<path fill="#FDFBFB" d="M14.408,38.63c0.167,2.016,0.678,3.968,1.519,5.801l2.433-1.116c-0.711-1.549-1.143-3.2-1.283-4.904
		L14.408,38.63z"/>
	<path fill="#FDFBFB" d="M22.01,48.222l-1.773,2.007c1.683,1.483,3.602,2.614,5.71,3.358l0.891-2.522
		C25.056,50.435,23.432,49.479,22.01,48.222z"/>
	<path fill="#FDFBFB" d="M31.744,51.901h5.353v2.677h-5.353V51.901z"/>
	<path fill="#FDFBFB" d="M42.449,51.901h5.352v2.677h-5.352V51.901z"/>
	<path fill="#FDFBFB" d="M53.153,51.901h5.354v2.677h-5.354V51.901z"/>
	<path fill="#FDFBFB" d="M63.858,51.901h5.353v2.677h-5.353V51.901z"/>
	<path fill="#FDFBFB" d="M80.722,54.846c-1.76-1.322-3.743-2.214-5.892-2.649L74.3,54.82c1.756,0.355,3.375,1.085,4.815,2.166
		L80.722,54.846z"/>
	<path fill="#FDFBFB" d="M85.381,60.733l-2.452,1.07c0.664,1.521,1.001,3.142,1.001,4.817h2.677
		C86.606,64.575,86.193,62.593,85.381,60.733z"/>
	<path fill="#FDFBFB" d="M79.112,76.255l1.607,2.141c2.034-1.528,3.646-3.563,4.659-5.886l-2.45-1.071
		C82.099,73.338,80.779,75.005,79.112,76.255z"/>
	<path fill="#FDFBFB" d="M69.211,78.663v2.677h2.676c0.986,0,1.977-0.1,2.942-0.295l-0.531-2.624
		c-0.79,0.161-1.603,0.242-2.411,0.242H69.211z"/>
	<path fill="#FDFBFB" d="M58.507,78.663h5.352v2.677h-5.352V78.663z"/>
	<path fill="#FDFBFB" d="M49.14,78.663h4.014v2.677H49.14V78.663z"/>
	<path fill="#FDFBFB" d="M81.254,27.708v13.488h2.676V27.708c4.531-0.653,8.029-4.55,8.029-9.259c0-5.164-4.204-9.367-9.367-9.367
		s-9.366,4.203-9.366,9.367C73.226,23.158,76.723,27.056,81.254,27.708z M82.592,11.759c3.689,0,6.69,3.001,6.69,6.69
		s-3.001,6.69-6.69,6.69c-3.688,0-6.69-3.001-6.69-6.69S78.903,11.759,82.592,11.759z"/>
	<path fill="#FDFBFB" d="M86.606,18.449H83.93c0,0.738-0.6,1.338-1.338,1.338v2.676C84.805,22.463,86.606,20.662,86.606,18.449z"/>
</g>
</svg>
