<?xml version="1.0" encoding="utf-8"?>
<!-- Generator: Adobe Illustrator 16.0.0, SVG Export Plug-In . SVG Version: 6.00 Build 0)  -->
<!DOCTYPE svg PUBLIC "-//W3C//DTD SVG 1.1//EN" "http://www.w3.org/Graphics/SVG/1.1/DTD/svg11.dtd">
<svg version="1.1" id="Layer_1" xmlns="http://www.w3.org/2000/svg" xmlns:xlink="http://www.w3.org/1999/xlink" x="0px" y="0px"
	 width="108px" height="100px" viewBox="0 0 108 100" enable-background="new 0 0 108 100" xml:space="preserve">
<g>
	<title  data-old_color="#F0F0F0" class="active-path" style="fill:#F9F9F9">pipes-Industry-pipeline-plumbing-water</title>
	<g id="Expand">
		<path fill="#F9F9F9" d="M87.75,8.404h-4.458c0-0.821-0.666-1.486-1.486-1.486H72.89c-0.821,0-1.486,0.665-1.486,1.486v1.523
			C54.525,10.715,41.02,24.22,40.231,41.098h-0.037c-0.821,0-1.486,0.666-1.486,1.486v4.458c-0.821,0-1.486,0.666-1.486,1.486v8.916
			c0,0.821,0.666,1.486,1.486,1.486h1.486v7.431h-7.431v-1.485c0-0.821-0.665-1.486-1.486-1.486h-8.916
			c-0.821,0-1.486,0.665-1.486,1.486h-4.458c-0.821,0-1.486,0.665-1.486,1.485H7.5v2.973h7.43v17.833H7.5v2.973h7.43
			c0,0.821,0.666,1.486,1.486,1.486h4.458c0,0.819,0.666,1.484,1.486,1.484h8.916c0.821,0,1.486-0.665,1.486-1.484V90.14h38.64
			v1.486c0,0.819,0.665,1.484,1.486,1.484h8.916c0.82,0,1.486-0.665,1.486-1.484h4.458c0.821,0,1.486-0.665,1.486-1.486h7.43v-2.973
			h-7.43V69.334h7.43v-2.973h-7.43c0-0.82-0.665-1.485-1.486-1.485h-4.458c0-0.821-0.666-1.486-1.486-1.486H72.89
			c-0.821,0-1.486,0.665-1.486,1.486v1.485h-7.431v-7.431h1.486c0.82,0,1.485-0.665,1.485-1.486v-8.916
			c0-0.82-0.665-1.486-1.485-1.486v-4.458c-0.004-0.765-0.594-1.399-1.355-1.459c0.627-3.746,3.557-6.684,7.3-7.323v1.352
			c0,0.821,0.665,1.486,1.486,1.486h8.916c0.82,0,1.486-0.665,1.486-1.486h4.458c0.821,0,1.486-0.666,1.486-1.486h7.43v-2.972h-7.43
			V12.861h7.43V9.89h-7.43C89.236,9.069,88.571,8.404,87.75,8.404z M17.903,88.653V67.848h2.972v20.806H17.903z M29.792,90.14
			h-5.943V66.361h5.943V90.14z M86.264,67.848v20.806h-2.972V67.848H86.264z M74.374,66.361h5.945V90.14h-5.945V66.361z
			 M62.486,69.334h8.917v17.833h-38.64V69.334h8.917c0.821,0,1.486-0.665,1.486-1.486v-8.917H61v8.917
			C61,68.669,61.665,69.334,62.486,69.334z M63.973,55.96H40.195v-5.946h23.778V55.96z M41.681,47.042V44.07h20.806v2.972H41.681z
			 M61.104,41.098h-17.86c0.774-15.22,12.939-27.385,28.16-28.16v17.86C66.024,31.483,61.788,35.719,61.104,41.098z M74.374,33.667
			V9.89h5.945v23.778H74.374z M86.264,32.182h-2.972V11.376h2.972V32.182z"/>
		<path fill="#F9F9F9" d="M35.37,33.312l2.887,0.71c2.521-10.246,9.458-18.846,18.938-23.477l-1.308-2.667
			C45.617,12.895,38.101,22.211,35.37,33.312z"/>
		<rect x="37.222" y="93.11" fill="#F9F9F9" width="23.778" height="2.973"/>
		<rect x="63.973" y="93.11" fill="#F9F9F9" width="2.972" height="2.973"/>
	</g>
</g>
</svg>
