<?xml version="1.0" encoding="utf-8"?>
<!-- Generator: Adobe Illustrator 16.0.0, SVG Export Plug-In . SVG Version: 6.00 Build 0)  -->
<!DOCTYPE svg PUBLIC "-//W3C//DTD SVG 1.1//EN" "http://www.w3.org/Graphics/SVG/1.1/DTD/svg11.dtd">
<svg version="1.1" id="Layer_1" xmlns="http://www.w3.org/2000/svg" xmlns:xlink="http://www.w3.org/1999/xlink" x="0px" y="0px"
	 width="112px" height="100px" viewBox="0 0 112 100" enable-background="new 0 0 112 100" xml:space="preserve">
<g>
	<path fill="#FFFFFF" d="M102.87,60.086c-0.58-0.23-1.242-0.086-1.675,0.365l-6.5,6.833V26.699h0.008l6.203-6.697
		c0.57-0.617,0.533-1.581-0.085-2.151c0,0,0-0.001-0.001-0.002l-2.233-2.078l3.103-3.349c0.57-0.617,0.532-1.58-0.086-2.149
		l-6.696-6.203c-0.617-0.571-1.58-0.534-2.15,0.083L81.935,15.84H29.248c-0.004-4.202-3.409-7.606-7.61-7.61h-1.522
		c-4.202,0.004-7.606,3.408-7.61,7.61v65.447c0,0.84,0.681,1.521,1.522,1.521h23.041l-3.197,3.839
		c-0.537,0.646-0.449,1.605,0.197,2.144l7.018,5.843c0.646,0.538,1.606,0.45,2.144-0.195l0.001-0.001l7.79-9.359
		c0.538-0.648,0.884-1.435,0.998-2.27h27.89l-9.147,9.606c-0.579,0.608-0.555,1.572,0.054,2.151c0.283,0.269,0.659,0.419,1.05,0.419
		h30.44c0.841,0,1.521-0.682,1.521-1.522V61.501C103.827,60.878,103.449,60.317,102.87,60.086z M97.638,19.035l-2.942,3.184v-2.239
		L96.521,18L97.638,19.035z M91.651,18.765v0.021L78.779,32.698l-4.47-4.136l15.506-16.758l4.471,4.136l-2.616,2.825H91.651z
		 M75.855,34.137l-3.501,1.021l0.748-3.571L75.855,34.137z M93.952,7.335l4.468,4.133l-2.068,2.24l-4.47-4.138L93.952,7.335z
		 M20.116,11.272h1.522c2.522,0,4.566,2.044,4.566,4.567v57.876c-1.31-1.007-2.915-1.556-4.566-1.562h-1.522
		c-1.653,0.006-3.257,0.555-4.566,1.562V15.84C15.549,13.317,17.593,11.272,20.116,11.272z M20.116,75.199h1.522
		c2.522,0,4.566,2.044,4.566,4.565H15.549C15.549,77.243,17.593,75.199,20.116,75.199z M48.683,83.131l-0.974,1.17l-4.678-3.895
		l0.972-1.171c0.538-0.646,1.497-0.733,2.143-0.195c0.001,0,0.001,0,0.001,0l2.339,1.943c0.647,0.536,0.735,1.496,0.198,2.143
		c0,0,0,0-0.001,0.001V83.131z M41.866,91.319l-4.679-3.895l3.896-4.681l4.678,3.896L41.866,91.319z M51.379,79.765
		c-0.253-0.421-0.573-0.799-0.947-1.117l-2.339-1.945c-1.938-1.615-4.817-1.353-6.431,0.587l-2.065,2.476h-10.35V18.884h49.871
		l-8.077,8.728c-0.115,0.13-0.207,0.281-0.271,0.443c-0.019,0.044-0.032,0.085-0.047,0.131c-0.015,0.045-0.039,0.091-0.05,0.14
		l-1.816,8.688c-0.171,0.822,0.356,1.628,1.18,1.8c0.243,0.051,0.496,0.042,0.736-0.028l8.523-2.484
		c0.04-0.013,0.073-0.036,0.111-0.049c0.038-0.014,0.077-0.033,0.118-0.054c0.171-0.078,0.326-0.187,0.457-0.321l11.668-12.61V70.48
		l-8.843,9.284H51.379z M100.784,91.94H75.415l25.369-26.636V91.94z"/>
	<path fill="#FFFFFF" d="M84.157,87.957c0.234,0.569,0.79,0.939,1.406,0.939h10.653c0.842,0,1.522-0.681,1.522-1.521V76.721
		c0-0.841-0.682-1.521-1.522-1.521c-0.403,0-0.79,0.16-1.075,0.446L84.487,86.299C84.052,86.734,83.922,87.389,84.157,87.957z
		 M94.695,80.395v5.458h-5.457L94.695,80.395z"/>
	<path fill="#FFFFFF" d="M79.475,61.501H68.821V44.758c-0.002-0.404-0.163-0.792-0.448-1.078l-9.132-9.132
		c-0.595-0.594-1.559-0.594-2.153,0l-9.131,9.132c-0.284,0.287-0.443,0.675-0.445,1.078v16.743H36.858
		c-0.841,0-1.522,0.681-1.522,1.521s0.682,1.522,1.522,1.522h42.617c0.84,0,1.521-0.682,1.521-1.522S80.315,61.501,79.475,61.501z
		 M58.166,37.777l5.459,5.458H52.708L58.166,37.777z M50.556,46.279h15.22v15.222h-15.22V46.279z"/>
	<path fill="#FFFFFF" d="M56.644,28.015h3.045v3.044h-3.045V28.015z"/>
	<path fill="#FFFFFF" d="M56.644,67.589h3.045v3.044h-3.045V67.589z"/>
</g>
</svg>
