<?xml version="1.0" encoding="utf-8"?>
<!-- Generator: Adobe Illustrator 16.0.0, SVG Export Plug-In . SVG Version: 6.00 Build 0)  -->
<!DOCTYPE svg PUBLIC "-//W3C//DTD SVG 1.1//EN" "http://www.w3.org/Graphics/SVG/1.1/DTD/svg11.dtd">
<svg version="1.1" id="Layer_1" xmlns="http://www.w3.org/2000/svg" xmlns:xlink="http://www.w3.org/1999/xlink" x="0px" y="0px"
	 width="98px" height="100px" viewBox="0 0 98 100" enable-background="new 0 0 98 100" xml:space="preserve">
<g>
	<path fill="#FCF8F8" d="M84.089,81.156C91.336,72.989,95.75,62.252,95.75,50.5c0-12.227-4.778-23.354-12.555-31.632v-0.002
		c-0.007-0.009-0.016-0.013-0.021-0.021c-8.099-8.61-19.448-14.122-32.07-14.554L51.101,4.29l-0.9-0.023
		c-0.232-0.009-0.466-0.017-0.7-0.017s-0.468,0.008-0.7,0.017L47.902,4.29L47.9,4.292c-12.623,0.432-23.971,5.944-32.072,14.554
		c-0.006,0.008-0.016,0.011-0.021,0.021c0,0,0,0.002-0.001,0.004C8.028,27.146,3.25,38.273,3.25,50.5
		c0,11.752,4.415,22.487,11.662,30.656c0.009,0.014,0.009,0.03,0.021,0.044c0.028,0.04,0.07,0.06,0.1,0.096
		C23.176,90.399,34.859,96.264,47.9,96.71v0.002l0.898,0.024c0.234,0.006,0.467,0.014,0.702,0.014s0.468-0.008,0.7-0.016
		l0.898-0.024l0.001-0.002c13.054-0.448,24.75-6.323,32.894-15.445c0.021-0.027,0.055-0.035,0.073-0.063
		C84.078,81.187,84.078,81.17,84.089,81.156z M6.479,52.094h19.143c0.18,6.761,1.501,13.331,3.852,19.484
		c-4.536,1.642-8.872,3.844-12.936,6.589C10.563,71.059,6.843,61.999,6.479,52.094z M17.409,21.83
		c3.968,2.581,8.192,4.647,12.6,6.191c-2.699,6.549-4.192,13.612-4.386,20.884H6.479C6.86,38.527,10.924,29.078,17.409,21.83z
		 M92.52,48.905H73.377c-0.194-7.272-1.688-14.334-4.385-20.884c4.406-1.544,8.631-3.611,12.599-6.191
		C88.075,29.078,92.139,38.527,92.52,48.905z M47.906,28.114c-4.611-0.131-9.137-0.819-13.51-2.046
		c3.233-6.632,7.797-12.617,13.51-17.601V28.114z M47.906,31.304v17.602H28.812c0.196-6.935,1.651-13.66,4.252-19.896
		C37.857,30.398,42.835,31.168,47.906,31.304z M51.094,31.304c5.071-0.136,10.047-0.903,14.845-2.294
		c2.601,6.235,4.055,12.961,4.251,19.896H51.094V31.304z M51.094,28.114V8.467c5.714,4.984,10.278,10.969,13.511,17.601
		C60.23,27.295,55.705,27.982,51.094,28.114z M67.696,25.098c-3.064-6.419-7.316-12.267-12.581-17.28
		c9.339,1.222,17.742,5.445,24.214,11.671C75.654,21.82,71.758,23.696,67.696,25.098z M31.305,25.098
		c-4.062-1.402-7.96-3.277-11.633-5.609c6.47-6.226,14.875-10.449,24.214-11.671C38.621,12.831,34.368,18.678,31.305,25.098z
		 M28.812,52.094h19.094v16.01c-5.274,0.142-10.442,0.963-15.409,2.458C30.253,64.731,28.992,58.505,28.812,52.094z M47.906,71.294
		v21.239c-6.115-5.335-10.909-11.815-14.169-19.006C38.309,72.18,43.059,71.431,47.906,71.294z M51.094,92.533V71.294
		c4.848,0.136,9.598,0.886,14.17,2.232C62.003,80.718,57.209,87.198,51.094,92.533z M51.094,68.104v-16.01h19.095
		c-0.181,6.411-1.441,12.638-3.688,18.469C61.536,69.066,56.369,68.245,51.094,68.104z M73.377,52.094H92.52
		c-0.363,9.905-4.08,18.965-10.058,26.073c-4.063-2.745-8.399-4.947-12.936-6.589C71.879,65.425,73.196,58.854,73.377,52.094z
		 M18.706,80.556c3.773-2.507,7.791-4.521,11.988-6.029c3.102,6.952,7.555,13.289,13.191,18.656
		C34.075,91.898,25.295,87.306,18.706,80.556z M55.115,93.183c5.637-5.364,10.089-11.701,13.191-18.656
		c4.197,1.508,8.214,3.522,11.987,6.029C73.704,87.306,64.925,91.898,55.115,93.183z"/>
</g>
</svg>
