<?xml version="1.0" encoding="utf-8"?>
<!-- Generator: Adobe Illustrator 16.0.0, SVG Export Plug-In . SVG Version: 6.00 Build 0)  -->
<!DOCTYPE svg PUBLIC "-//W3C//DTD SVG 1.1//EN" "http://www.w3.org/Graphics/SVG/1.1/DTD/svg11.dtd">
<svg version="1.1" id="Layer_1" xmlns="http://www.w3.org/2000/svg" xmlns:xlink="http://www.w3.org/1999/xlink" x="0px" y="0px"
	 width="115px" height="100px" viewBox="0 0 115 100" enable-background="new 0 0 115 100" xml:space="preserve">
<g>
	<path fill="#FDFBFB" d="M48.85,21c0,0.801-0.648,1.45-1.449,1.45c-0.801,0-1.45-0.649-1.45-1.45s0.649-1.449,1.45-1.449
		C48.201,19.551,48.85,20.199,48.85,21z"/>
	<path fill="#FDFBFB" d="M45.895,60.15h0.056c0.779-0.001,1.418-0.617,1.45-1.396l1.174-30.725c0.031-0.801-0.593-1.474-1.394-1.505
		c-0.8-0.029-1.474,0.594-1.504,1.394l-1.175,30.726c-0.015,0.385,0.124,0.759,0.385,1.041
		C45.148,59.969,45.511,60.135,45.895,60.15z"/>
	<path fill="#FDFBFB" d="M98.149,32.6H95.25c-2.4,0.003-4.348,1.949-4.35,4.35v5.8h-4.093l-0.1-1.707
		c-0.137-2.3-2.045-4.095-4.349-4.093h-3.154l-1.027-22.164c-0.216-4.641-4.044-8.291-8.691-8.286H48.513
		c-4.646-0.005-8.476,3.646-8.69,8.288L38.795,36.95H35.64c-2.303-0.003-4.209,1.791-4.346,4.091l-0.101,1.709H27.1v-5.8
		c-0.002-2.401-1.949-4.347-4.35-4.35h-2.899c-2.402,0.003-4.348,1.949-4.351,4.35V60.15c0.002,2.4,1.949,4.347,4.351,4.35h2.899
		c2.401-0.003,4.347-1.949,4.35-4.35V54.35h3.408l-0.419,7.088c-0.043,0.78,0.231,1.546,0.76,2.121
		c0.53,0.574,1.269,0.912,2.05,0.933V83.35H30c-2.401,0.003-4.347,1.949-4.35,4.35v1.451c0.002,2.4,1.949,4.347,4.35,4.35h58
		c2.4-0.003,4.348-1.949,4.35-4.35v-1.451c-0.002-2.4-1.949-4.347-4.35-4.35h-2.899V64.491c0.783-0.021,1.524-0.359,2.055-0.937
		c0.529-0.577,0.801-1.345,0.755-2.127l-0.417-7.078H90.9v5.801c0.002,2.4,1.949,4.347,4.35,4.35h2.899
		c2.401-0.003,4.348-1.949,4.351-4.35V36.95C102.497,34.549,100.551,32.603,98.149,32.6z M82.359,39.85
		c0.77-0.002,1.405,0.595,1.453,1.362L85.014,61.6h-4.665l-1.01-21.75H82.359z M63.351,83.35v-4.753
		c0.894-0.513,1.446-1.466,1.45-2.497v-4.35h8.424c0.582-0.007,1.161-0.082,1.725-0.227V83.35H63.351z M57.55,83.35V79h2.899v4.35
		H57.55z M43.05,83.35V71.523c0.564,0.145,1.144,0.22,1.726,0.227H53.2v4.35c0.003,1.031,0.555,1.984,1.449,2.497v4.753H43.05z
		 M61.901,76.1H56.1v-4.35h5.802V76.1z M42.72,14.924c0.124-2.668,2.058-4.906,4.681-5.416v4.242c0,0.801,0.648,1.45,1.449,1.45
		c0.801,0,1.45-0.649,1.45-1.45V9.4h2.9v4.35c0,0.801,0.649,1.45,1.449,1.45c0.802,0,1.45-0.649,1.45-1.45V9.4H61.9v4.35
		c0,0.801,0.648,1.45,1.45,1.45c0.8,0,1.45-0.649,1.45-1.45V9.4h2.898v4.35c0,0.801,0.649,1.45,1.451,1.45
		c0.801,0,1.449-0.649,1.449-1.45V9.508c2.622,0.51,4.556,2.746,4.681,5.415l2.29,49.376c0.056,1.188-0.378,2.346-1.199,3.206
		c-0.821,0.859-1.957,1.345-3.146,1.345H44.775c-1.188,0-2.325-0.486-3.146-1.345c-0.821-0.86-1.254-2.019-1.199-3.206L42.72,14.924
		z M35.64,39.85h3.02L37.652,61.6h-4.668l1.205-20.391C34.236,40.442,34.873,39.846,35.64,39.85z M24.2,60.15
		c0,0.801-0.649,1.449-1.45,1.449h-2.899c-0.801,0-1.449-0.648-1.45-1.449V36.95c0.001-0.801,0.649-1.448,1.45-1.45h2.899
		c0.801,0.001,1.45,0.649,1.45,1.45V60.15z M27.1,51.451V45.65h3.922l-0.342,5.801H27.1z M35.8,64.5h1.751
		c-0.016,1.862,0.695,3.658,1.98,5.006c0.196,0.188,0.403,0.366,0.619,0.531V83.35H35.8V64.5z M89.449,87.699v1.451
		c0,0.799-0.648,1.448-1.449,1.449H30c-0.8-0.001-1.45-0.65-1.45-1.449v-1.451c0-0.799,0.65-1.448,1.45-1.449h58
		C88.801,86.251,89.449,86.9,89.449,87.699z M77.85,83.35V70.037c0.217-0.165,0.424-0.343,0.619-0.531
		c1.285-1.348,1.997-3.144,1.98-5.006h1.75v18.85H77.85z M87.32,51.451l-0.341-5.801H90.9v5.801H87.32z M99.601,60.15
		c-0.002,0.801-0.651,1.449-1.451,1.449H95.25c-0.801,0-1.449-0.648-1.449-1.449V36.95c0-0.801,0.648-1.448,1.449-1.45h2.899
		c0.8,0.001,1.449,0.649,1.451,1.45V60.15z"/>
</g>
</svg>
