<?xml version="1.0" encoding="utf-8"?>
<!-- Generator: Adobe Illustrator 16.0.0, SVG Export Plug-In . SVG Version: 6.00 Build 0)  -->
<!DOCTYPE svg PUBLIC "-//W3C//DTD SVG 1.1//EN" "http://www.w3.org/Graphics/SVG/1.1/DTD/svg11.dtd">
<svg version="1.1" id="Layer_1" xmlns="http://www.w3.org/2000/svg" xmlns:xlink="http://www.w3.org/1999/xlink" x="0px" y="0px"
	 width="28px" height="32px" viewBox="0 0 28 32" enable-background="new 0 0 28 32" xml:space="preserve">
<g>
	
		<rect x="4.894" y="9.098" transform="matrix(0.7107 -0.7035 0.7035 0.7107 -7.9419 13.4135)" fill="#FFFFFF" width="14.888" height="14.529"/>
	<g>
		<g>
			<path fill="#00BFF2" d="M19.319,8.524L15.325,4.53c-0.883-0.884-2.316-0.884-3.2,0L6.803,9.853
				C10.903,7.871,15.386,7.421,19.319,8.524z"/>
			<path fill="#009ADE" d="M10.636,23.229v2.066l1.489,1.488c0.884,0.884,2.317,0.884,3.2,0l3.406-3.406
				C16.176,22.677,13.393,22.63,10.636,23.229z"/>
			<path fill="#009ADE" d="M24.852,14.056l-5.532-5.532c-3.934-1.103-8.417-0.654-12.517,1.328l-4.204,4.204
				c-0.679,0.68-0.834,1.684-0.469,2.512c2.42-2.091,5.163-3.517,7.961-4.273c1.762-1.903,4.674-2.129,6.703-0.524
				c3.291,0.39,6.353,1.771,8.705,4.153C25.576,15.259,25.362,14.566,24.852,14.056z"/>
			<path fill="#0077BF" d="M16.811,15.508c-0.078-1.635-1.432-2.941-3.086-2.941c-1.764,0-3.191,1.488-3.083,3.28
				C12.715,15.367,14.807,15.252,16.811,15.508z"/>
			<path fill="#0077BF" d="M18.673,15.859c1.862,0.47,3.609,1.277,5.148,2.431c1.047-1.049,1.563-1.408,1.677-2.366
				c-2.353-2.382-5.414-3.763-8.705-4.153C17.995,12.723,18.741,14.21,18.673,15.859z"/>
			<path fill="#0077BF" d="M4.061,18.719c1.503-1.007,3.091-1.785,4.711-2.338c0-0.815-0.141-2.509,1.319-4.086
				c-2.798,0.756-5.541,2.183-7.961,4.273C2.353,17.075,2.5,17.158,4.061,18.719z"/>
			<path fill="#0077BF" d="M8.771,23.43v-3.376c-0.809,0.27-1.61,0.597-2.397,0.979L8.771,23.43z"/>
			<path fill="#0077BF" d="M10.646,19.533c-0.003,0.001-0.007,0.002-0.01,0.003v3.692c2.757-0.599,5.54-0.552,8.096,0.148
				l2.732-2.732c-1.366-0.673-2.84-1.124-4.37-1.36C15.28,20.969,12.549,21.045,10.646,19.533z"/>
			<path fill="#034EA1" d="M13.725,18.746c1.753,0,3.171-1.468,3.086-3.238c-2.004-0.256-4.095-0.141-6.168,0.339
				C10.741,17.462,12.085,18.746,13.725,18.746z"/>
			<path fill="#034EA1" d="M17.094,19.284c1.53,0.236,3.004,0.688,4.37,1.36l2.357-2.354c-1.539-1.153-3.286-1.961-5.148-2.431
				C18.618,17.21,18.022,18.422,17.094,19.284z"/>
			<path fill="#034EA1" d="M6.374,21.032c0.787-0.382,1.588-0.709,2.397-0.979v-3.673c-1.62,0.553-3.208,1.331-4.711,2.338
				L6.374,21.032z"/>
			<polygon fill="#004B8B" points="10.636,19.525 10.636,19.536 10.646,19.533 			"/>
		</g>
	</g>
</g>
</svg>
